{
	"patcher" : 	{
		"fileversion" : 1,
		"appversion" : 		{
			"major" : 5,
			"minor" : 1,
			"revision" : 9
		}
,
		"rect" : [ 50.0, 94.0, 640.0, 480.0 ],
		"bglocked" : 0,
		"defrect" : [ 50.0, 94.0, 640.0, 480.0 ],
		"openrect" : [ 0.0, 0.0, 0.0, 0.0 ],
		"openinpresentation" : 0,
		"default_fontsize" : 9.0,
		"default_fontface" : 0,
		"default_fontname" : "Arial",
		"gridonopen" : 0,
		"gridsize" : [ 15.0, 15.0 ],
		"gridsnaponopen" : 0,
		"toolbarvisible" : 1,
		"boxanimatetime" : 200,
		"imprint" : 0,
		"enablehscroll" : 1,
		"enablevscroll" : 1,
		"devicewidth" : 0.0,
		"boxes" : [ 			{
				"box" : 				{
					"maxclass" : "flonum",
					"outlettype" : [ "float", "bang" ],
					"fontsize" : 9.0,
					"numinlets" : 1,
					"patching_rect" : [ 135.848022, 474.000061, 37.0, 17.0 ],
					"id" : "obj-703",
					"fontname" : "Arial",
					"numoutlets" : 2
				}

			}
, 			{
				"box" : 				{
					"maxclass" : "comment",
					"text" : "cyc. time",
					"fontsize" : 9.0,
					"numinlets" : 1,
					"patching_rect" : [ 96.0, 475.370697, 50.0, 17.0 ],
					"id" : "obj-704",
					"fontname" : "Arial",
					"numoutlets" : 0
				}

			}
, 			{
				"box" : 				{
					"maxclass" : "toggle",
					"outlettype" : [ "int" ],
					"numinlets" : 1,
					"patching_rect" : [ 156.0, 456.370697, 17.0, 17.0 ],
					"id" : "obj-705",
					"numoutlets" : 1
				}

			}
, 			{
				"box" : 				{
					"maxclass" : "comment",
					"text" : "cycle",
					"fontsize" : 9.0,
					"numinlets" : 1,
					"patching_rect" : [ 127.0, 456.370697, 31.0, 17.0 ],
					"id" : "obj-706",
					"fontname" : "Arial",
					"numoutlets" : 0
				}

			}
, 			{
				"box" : 				{
					"maxclass" : "flonum",
					"outlettype" : [ "float", "bang" ],
					"fontsize" : 9.0,
					"numinlets" : 1,
					"patching_rect" : [ 125.848022, 402.000061, 47.0, 17.0 ],
					"id" : "obj-707",
					"fontname" : "Arial",
					"numoutlets" : 2
				}

			}
, 			{
				"box" : 				{
					"maxclass" : "comment",
					"text" : "min",
					"fontsize" : 9.0,
					"numinlets" : 1,
					"patching_rect" : [ 105.848022, 438.000061, 23.0, 17.0 ],
					"id" : "obj-708",
					"fontname" : "Arial",
					"numoutlets" : 0
				}

			}
, 			{
				"box" : 				{
					"maxclass" : "comment",
					"text" : "max",
					"fontsize" : 9.0,
					"numinlets" : 1,
					"patching_rect" : [ 101.848022, 420.000061, 28.0, 17.0 ],
					"id" : "obj-709",
					"fontname" : "Arial",
					"numoutlets" : 0
				}

			}
, 			{
				"box" : 				{
					"maxclass" : "number",
					"outlettype" : [ "int", "bang" ],
					"fontsize" : 9.0,
					"numinlets" : 1,
					"patching_rect" : [ 124.848022, 438.000061, 48.0, 17.0 ],
					"id" : "obj-710",
					"fontname" : "Arial",
					"numoutlets" : 2
				}

			}
, 			{
				"box" : 				{
					"maxclass" : "number",
					"outlettype" : [ "int", "bang" ],
					"fontsize" : 9.0,
					"numinlets" : 1,
					"patching_rect" : [ 124.848022, 420.000061, 48.0, 17.0 ],
					"id" : "obj-711",
					"fontname" : "Arial",
					"numoutlets" : 2
				}

			}
, 			{
				"box" : 				{
					"maxclass" : "comment",
					"text" : "end pt",
					"fontsize" : 9.0,
					"numinlets" : 1,
					"patching_rect" : [ 126.0, 386.370697, 38.0, 17.0 ],
					"id" : "obj-713",
					"fontname" : "Arial",
					"numoutlets" : 0
				}

			}
, 			{
				"box" : 				{
					"maxclass" : "toggle",
					"outlettype" : [ "int" ],
					"numinlets" : 1,
					"patching_rect" : [ 156.0, 385.370697, 17.0, 17.0 ],
					"id" : "obj-714",
					"numoutlets" : 1
				}

			}
, 			{
				"box" : 				{
					"maxclass" : "flonum",
					"outlettype" : [ "float", "bang" ],
					"fontsize" : 9.0,
					"numinlets" : 1,
					"patching_rect" : [ 59.848022, 475.000061, 37.0, 17.0 ],
					"id" : "obj-702",
					"fontname" : "Arial",
					"numoutlets" : 2
				}

			}
, 			{
				"box" : 				{
					"maxclass" : "comment",
					"text" : "cyc. time",
					"fontsize" : 9.0,
					"numinlets" : 1,
					"patching_rect" : [ 20.0, 476.370697, 50.0, 17.0 ],
					"id" : "obj-701",
					"fontname" : "Arial",
					"numoutlets" : 0
				}

			}
, 			{
				"box" : 				{
					"maxclass" : "toggle",
					"outlettype" : [ "int" ],
					"numinlets" : 1,
					"patching_rect" : [ 80.0, 457.370697, 17.0, 17.0 ],
					"id" : "obj-699",
					"numoutlets" : 1
				}

			}
, 			{
				"box" : 				{
					"maxclass" : "comment",
					"text" : "cycle",
					"fontsize" : 9.0,
					"numinlets" : 1,
					"patching_rect" : [ 51.0, 457.370697, 31.0, 17.0 ],
					"id" : "obj-698",
					"fontname" : "Arial",
					"numoutlets" : 0
				}

			}
, 			{
				"box" : 				{
					"maxclass" : "flonum",
					"outlettype" : [ "float", "bang" ],
					"fontsize" : 9.0,
					"numinlets" : 1,
					"patching_rect" : [ 49.848022, 403.000061, 47.0, 17.0 ],
					"id" : "obj-696",
					"fontname" : "Arial",
					"numoutlets" : 2
				}

			}
, 			{
				"box" : 				{
					"maxclass" : "comment",
					"text" : "min",
					"fontsize" : 9.0,
					"numinlets" : 1,
					"patching_rect" : [ 29.848022, 439.000061, 23.0, 17.0 ],
					"id" : "obj-689",
					"fontname" : "Arial",
					"numoutlets" : 0
				}

			}
, 			{
				"box" : 				{
					"maxclass" : "comment",
					"text" : "max",
					"fontsize" : 9.0,
					"numinlets" : 1,
					"patching_rect" : [ 25.848022, 421.000061, 28.0, 17.0 ],
					"id" : "obj-690",
					"fontname" : "Arial",
					"numoutlets" : 0
				}

			}
, 			{
				"box" : 				{
					"maxclass" : "number",
					"outlettype" : [ "int", "bang" ],
					"fontsize" : 9.0,
					"numinlets" : 1,
					"patching_rect" : [ 48.848022, 439.000061, 48.0, 17.0 ],
					"id" : "obj-691",
					"fontname" : "Arial",
					"numoutlets" : 2
				}

			}
, 			{
				"box" : 				{
					"maxclass" : "number",
					"outlettype" : [ "int", "bang" ],
					"fontsize" : 9.0,
					"numinlets" : 1,
					"patching_rect" : [ 48.848022, 421.000061, 48.0, 17.0 ],
					"id" : "obj-693",
					"fontname" : "Arial",
					"numoutlets" : 2
				}

			}
, 			{
				"box" : 				{
					"maxclass" : "comment",
					"text" : "start pt",
					"fontsize" : 9.0,
					"numinlets" : 1,
					"patching_rect" : [ 46.0, 387.370697, 38.0, 17.0 ],
					"id" : "obj-683",
					"fontname" : "Arial",
					"numoutlets" : 0
				}

			}
, 			{
				"box" : 				{
					"maxclass" : "newobj",
					"text" : "p granulate",
					"outlettype" : [ "int", "int" ],
					"fontface" : 1,
					"fontsize" : 9.0,
					"numinlets" : 12,
					"patching_rect" : [ 18.0, 493.370697, 158.0, 17.0 ],
					"id" : "obj-682",
					"fontname" : "Arial",
					"numoutlets" : 2,
					"bgcolor" : [ 0.968627, 1.0, 0.686275, 1.0 ],
					"patcher" : 					{
						"fileversion" : 1,
						"appversion" : 						{
							"major" : 5,
							"minor" : 1,
							"revision" : 9
						}
,
						"rect" : [ 25.0, 69.0, 1602.0, 588.0 ],
						"bglocked" : 0,
						"defrect" : [ 25.0, 69.0, 1602.0, 588.0 ],
						"openrect" : [ 0.0, 0.0, 0.0, 0.0 ],
						"openinpresentation" : 0,
						"default_fontsize" : 9.0,
						"default_fontface" : 0,
						"default_fontname" : "Arial",
						"gridonopen" : 0,
						"gridsize" : [ 15.0, 15.0 ],
						"gridsnaponopen" : 0,
						"toolbarvisible" : 1,
						"boxanimatetime" : 200,
						"imprint" : 0,
						"enablehscroll" : 1,
						"enablevscroll" : 1,
						"devicewidth" : 0.0,
						"boxes" : [ 							{
								"box" : 								{
									"maxclass" : "outlet",
									"numinlets" : 1,
									"patching_rect" : [ 599.0, 618.0, 25.0, 25.0 ],
									"id" : "obj-14",
									"numoutlets" : 0,
									"comment" : ""
								}

							}
, 							{
								"box" : 								{
									"maxclass" : "outlet",
									"numinlets" : 1,
									"patching_rect" : [ 420.0, 615.0, 25.0, 25.0 ],
									"id" : "obj-13",
									"numoutlets" : 0,
									"comment" : ""
								}

							}
, 							{
								"box" : 								{
									"maxclass" : "inlet",
									"outlettype" : [ "float" ],
									"numinlets" : 0,
									"patching_rect" : [ 1082.0, 156.0, 25.0, 25.0 ],
									"id" : "obj-12",
									"numoutlets" : 1,
									"comment" : ""
								}

							}
, 							{
								"box" : 								{
									"maxclass" : "inlet",
									"outlettype" : [ "int" ],
									"numinlets" : 0,
									"patching_rect" : [ 1017.0, 156.0, 25.0, 25.0 ],
									"id" : "obj-11",
									"numoutlets" : 1,
									"comment" : ""
								}

							}
, 							{
								"box" : 								{
									"maxclass" : "inlet",
									"outlettype" : [ "int" ],
									"numinlets" : 0,
									"patching_rect" : [ 949.0, 156.0, 25.0, 25.0 ],
									"id" : "obj-10",
									"numoutlets" : 1,
									"comment" : ""
								}

							}
, 							{
								"box" : 								{
									"maxclass" : "inlet",
									"outlettype" : [ "int" ],
									"numinlets" : 0,
									"patching_rect" : [ 860.0, 156.0, 25.0, 25.0 ],
									"id" : "obj-9",
									"numoutlets" : 1,
									"comment" : ""
								}

							}
, 							{
								"box" : 								{
									"maxclass" : "inlet",
									"outlettype" : [ "float" ],
									"numinlets" : 0,
									"patching_rect" : [ 781.0, 152.0, 25.0, 25.0 ],
									"id" : "obj-8",
									"numoutlets" : 1,
									"comment" : ""
								}

							}
, 							{
								"box" : 								{
									"maxclass" : "inlet",
									"outlettype" : [ "int" ],
									"numinlets" : 0,
									"patching_rect" : [ 697.0, 164.0, 25.0, 25.0 ],
									"id" : "obj-7",
									"numoutlets" : 1,
									"comment" : ""
								}

							}
, 							{
								"box" : 								{
									"maxclass" : "inlet",
									"outlettype" : [ "float" ],
									"numinlets" : 0,
									"patching_rect" : [ 623.0, 156.0, 25.0, 25.0 ],
									"id" : "obj-6",
									"numoutlets" : 1,
									"comment" : ""
								}

							}
, 							{
								"box" : 								{
									"maxclass" : "inlet",
									"outlettype" : [ "int" ],
									"numinlets" : 0,
									"patching_rect" : [ 551.0, 155.0, 25.0, 25.0 ],
									"id" : "obj-5",
									"numoutlets" : 1,
									"comment" : ""
								}

							}
, 							{
								"box" : 								{
									"maxclass" : "inlet",
									"outlettype" : [ "int" ],
									"numinlets" : 0,
									"patching_rect" : [ 468.0, 156.0, 25.0, 25.0 ],
									"id" : "obj-4",
									"numoutlets" : 1,
									"comment" : ""
								}

							}
, 							{
								"box" : 								{
									"maxclass" : "inlet",
									"outlettype" : [ "int" ],
									"numinlets" : 0,
									"patching_rect" : [ 396.0, 157.0, 25.0, 25.0 ],
									"id" : "obj-3",
									"numoutlets" : 1,
									"comment" : ""
								}

							}
, 							{
								"box" : 								{
									"maxclass" : "inlet",
									"outlettype" : [ "float" ],
									"numinlets" : 0,
									"patching_rect" : [ 327.0, 154.0, 25.0, 25.0 ],
									"id" : "obj-2",
									"numoutlets" : 1,
									"comment" : ""
								}

							}
, 							{
								"box" : 								{
									"maxclass" : "inlet",
									"outlettype" : [ "int" ],
									"numinlets" : 0,
									"patching_rect" : [ 270.0, 154.0, 25.0, 25.0 ],
									"id" : "obj-1",
									"numoutlets" : 1,
									"comment" : ""
								}

							}
, 							{
								"box" : 								{
									"maxclass" : "comment",
									"text" : "Granulate",
									"fontsize" : 9.0,
									"numinlets" : 1,
									"patching_rect" : [ 516.999878, 320.0, 50.0, 17.0 ],
									"id" : "obj-663",
									"fontname" : "Arial",
									"numoutlets" : 0
								}

							}
, 							{
								"box" : 								{
									"maxclass" : "comment",
									"text" : "Both off",
									"fontsize" : 9.0,
									"numinlets" : 1,
									"patching_rect" : [ 521.999878, 374.000061, 40.0, 17.0 ],
									"id" : "obj-251",
									"fontname" : "Arial",
									"numoutlets" : 0
								}

							}
, 							{
								"box" : 								{
									"maxclass" : "umenu",
									"outlettype" : [ "int", "", "" ],
									"fontsize" : 9.0,
									"items" : [ "Up", ",", "Down", ",", "U", "&", "D" ],
									"types" : [  ],
									"numinlets" : 1,
									"patching_rect" : [ 600.999939, 466.000061, 52.0, 17.0 ],
									"id" : "obj-252",
									"fontname" : "Arial",
									"numoutlets" : 3
								}

							}
, 							{
								"box" : 								{
									"maxclass" : "comment",
									"text" : "min",
									"fontsize" : 9.0,
									"numinlets" : 1,
									"patching_rect" : [ 540.999878, 503.000061, 23.0, 17.0 ],
									"id" : "obj-253",
									"fontname" : "Arial",
									"numoutlets" : 0
								}

							}
, 							{
								"box" : 								{
									"maxclass" : "comment",
									"text" : "max",
									"fontsize" : 9.0,
									"numinlets" : 1,
									"patching_rect" : [ 536.999878, 485.000061, 28.0, 17.0 ],
									"id" : "obj-254",
									"fontname" : "Arial",
									"numoutlets" : 0
								}

							}
, 							{
								"box" : 								{
									"maxclass" : "number",
									"outlettype" : [ "int", "bang" ],
									"fontsize" : 9.0,
									"numinlets" : 1,
									"patching_rect" : [ 559.999878, 503.000061, 48.0, 17.0 ],
									"id" : "obj-257",
									"fontname" : "Arial",
									"numoutlets" : 2
								}

							}
, 							{
								"box" : 								{
									"maxclass" : "message",
									"text" : "setmin $1",
									"outlettype" : [ "" ],
									"fontsize" : 9.0,
									"numinlets" : 2,
									"patching_rect" : [ 603.999939, 502.000061, 48.0, 15.0 ],
									"id" : "obj-258",
									"fontname" : "Arial",
									"numoutlets" : 1,
									"hidden" : 1
								}

							}
, 							{
								"box" : 								{
									"maxclass" : "number",
									"outlettype" : [ "int", "bang" ],
									"fontsize" : 9.0,
									"numinlets" : 1,
									"patching_rect" : [ 559.999878, 485.000061, 48.0, 17.0 ],
									"id" : "obj-259",
									"fontname" : "Arial",
									"numoutlets" : 2
								}

							}
, 							{
								"box" : 								{
									"maxclass" : "message",
									"text" : "max $1",
									"outlettype" : [ "" ],
									"fontsize" : 9.0,
									"numinlets" : 2,
									"patching_rect" : [ 606.999939, 486.000061, 39.0, 15.0 ],
									"id" : "obj-260",
									"fontname" : "Arial",
									"numoutlets" : 1,
									"hidden" : 1
								}

							}
, 							{
								"box" : 								{
									"maxclass" : "comment",
									"text" : "min",
									"fontsize" : 9.0,
									"numinlets" : 1,
									"patching_rect" : [ 404.0, 504.000061, 23.0, 17.0 ],
									"id" : "obj-261",
									"fontname" : "Arial",
									"numoutlets" : 0
								}

							}
, 							{
								"box" : 								{
									"maxclass" : "comment",
									"text" : "max",
									"fontsize" : 9.0,
									"numinlets" : 1,
									"patching_rect" : [ 400.0, 486.000061, 28.0, 17.0 ],
									"id" : "obj-262",
									"fontname" : "Arial",
									"numoutlets" : 0
								}

							}
, 							{
								"box" : 								{
									"maxclass" : "number",
									"outlettype" : [ "int", "bang" ],
									"fontsize" : 9.0,
									"numinlets" : 1,
									"patching_rect" : [ 423.0, 504.000061, 48.0, 17.0 ],
									"id" : "obj-275",
									"fontname" : "Arial",
									"numoutlets" : 2
								}

							}
, 							{
								"box" : 								{
									"maxclass" : "message",
									"text" : "setmin $1",
									"outlettype" : [ "" ],
									"fontsize" : 9.0,
									"numinlets" : 2,
									"patching_rect" : [ 472.999878, 504.000061, 48.0, 15.0 ],
									"id" : "obj-413",
									"fontname" : "Arial",
									"numoutlets" : 1,
									"hidden" : 1
								}

							}
, 							{
								"box" : 								{
									"maxclass" : "number",
									"outlettype" : [ "int", "bang" ],
									"fontsize" : 9.0,
									"numinlets" : 1,
									"patching_rect" : [ 423.0, 486.000061, 48.0, 17.0 ],
									"id" : "obj-414",
									"fontname" : "Arial",
									"numoutlets" : 2
								}

							}
, 							{
								"box" : 								{
									"maxclass" : "message",
									"text" : "max $1",
									"outlettype" : [ "" ],
									"fontsize" : 9.0,
									"numinlets" : 2,
									"patching_rect" : [ 471.999878, 487.000061, 39.0, 15.0 ],
									"id" : "obj-415",
									"fontname" : "Arial",
									"numoutlets" : 1,
									"hidden" : 1
								}

							}
, 							{
								"box" : 								{
									"maxclass" : "comment",
									"text" : "end point",
									"linecount" : 2,
									"fontsize" : 9.0,
									"numinlets" : 1,
									"patching_rect" : [ 535.999878, 445.000061, 28.0, 27.0 ],
									"id" : "obj-417",
									"fontname" : "Arial",
									"numoutlets" : 0
								}

							}
, 							{
								"box" : 								{
									"maxclass" : "comment",
									"text" : "start point",
									"linecount" : 2,
									"fontsize" : 9.0,
									"numinlets" : 1,
									"patching_rect" : [ 396.0, 446.000061, 29.0, 27.0 ],
									"id" : "obj-430",
									"fontname" : "Arial",
									"numoutlets" : 0
								}

							}
, 							{
								"box" : 								{
									"maxclass" : "button",
									"outlettype" : [ "bang" ],
									"numinlets" : 1,
									"patching_rect" : [ 557.999878, 521.000061, 17.0, 17.0 ],
									"id" : "obj-435",
									"numoutlets" : 1
								}

							}
, 							{
								"box" : 								{
									"maxclass" : "umenu",
									"outlettype" : [ "int", "", "" ],
									"fontsize" : 9.0,
									"items" : [ "Up", ",", "Down", ",", "U", "&", "D" ],
									"types" : [  ],
									"numinlets" : 1,
									"patching_rect" : [ 459.0, 468.000061, 52.0, 17.0 ],
									"id" : "obj-445",
									"fontname" : "Arial",
									"numoutlets" : 3
								}

							}
, 							{
								"box" : 								{
									"maxclass" : "flonum",
									"outlettype" : [ "float", "bang" ],
									"fontsize" : 9.0,
									"numinlets" : 1,
									"patching_rect" : [ 582.999878, 339.0, 50.0, 17.0 ],
									"id" : "obj-43",
									"fontname" : "Arial",
									"numoutlets" : 2
								}

							}
, 							{
								"box" : 								{
									"maxclass" : "newobj",
									"text" : "abs",
									"outlettype" : [ "int" ],
									"fontsize" : 9.0,
									"numinlets" : 1,
									"patching_rect" : [ 615.999939, 411.000061, 25.0, 17.0 ],
									"id" : "obj-446",
									"fontname" : "Arial",
									"numoutlets" : 1
								}

							}
, 							{
								"box" : 								{
									"maxclass" : "flonum",
									"outlettype" : [ "float", "bang" ],
									"fontsize" : 9.0,
									"numinlets" : 1,
									"patching_rect" : [ 583.999878, 393.000061, 50.0, 17.0 ],
									"id" : "obj-45",
									"fontname" : "Arial",
									"numoutlets" : 2
								}

							}
, 							{
								"box" : 								{
									"maxclass" : "newobj",
									"text" : "* 25.",
									"outlettype" : [ "float" ],
									"fontsize" : 9.0,
									"numinlets" : 2,
									"patching_rect" : [ 582.999878, 411.000061, 32.5, 17.0 ],
									"id" : "obj-46",
									"fontname" : "Arial",
									"numoutlets" : 1
								}

							}
, 							{
								"box" : 								{
									"maxclass" : "toggle",
									"outlettype" : [ "int" ],
									"numinlets" : 1,
									"patching_rect" : [ 582.999878, 318.0, 20.0, 20.0 ],
									"id" : "obj-47",
									"numoutlets" : 1
								}

							}
, 							{
								"box" : 								{
									"maxclass" : "newobj",
									"text" : "gate",
									"outlettype" : [ "" ],
									"fontsize" : 9.0,
									"numinlets" : 2,
									"patching_rect" : [ 582.999878, 429.000061, 32.5, 17.0 ],
									"id" : "obj-448",
									"fontname" : "Arial",
									"numoutlets" : 1
								}

							}
, 							{
								"box" : 								{
									"maxclass" : "number~",
									"outlettype" : [ "signal", "float" ],
									"mode" : 2,
									"fontsize" : 9.0,
									"sig" : 0.0,
									"ft1" : 5.0,
									"numinlets" : 2,
									"patching_rect" : [ 582.999878, 375.000061, 56.0, 17.0 ],
									"id" : "obj-449",
									"fontname" : "Arial",
									"numoutlets" : 2
								}

							}
, 							{
								"box" : 								{
									"maxclass" : "newobj",
									"text" : "cycle~ 440.",
									"outlettype" : [ "signal" ],
									"fontsize" : 9.0,
									"numinlets" : 2,
									"patching_rect" : [ 582.999878, 357.0, 56.0, 17.0 ],
									"id" : "obj-450",
									"fontname" : "Arial",
									"numoutlets" : 1
								}

							}
, 							{
								"box" : 								{
									"maxclass" : "flonum",
									"outlettype" : [ "float", "bang" ],
									"fontsize" : 9.0,
									"numinlets" : 1,
									"patching_rect" : [ 445.0, 339.0, 50.0, 17.0 ],
									"id" : "obj-468",
									"fontname" : "Arial",
									"numoutlets" : 2
								}

							}
, 							{
								"box" : 								{
									"maxclass" : "newobj",
									"text" : "abs",
									"outlettype" : [ "int" ],
									"fontsize" : 9.0,
									"numinlets" : 1,
									"patching_rect" : [ 477.999878, 411.000061, 25.0, 17.0 ],
									"id" : "obj-473",
									"fontname" : "Arial",
									"numoutlets" : 1
								}

							}
, 							{
								"box" : 								{
									"maxclass" : "flonum",
									"outlettype" : [ "float", "bang" ],
									"fontsize" : 9.0,
									"numinlets" : 1,
									"patching_rect" : [ 446.0, 393.000061, 50.0, 17.0 ],
									"id" : "obj-474",
									"fontname" : "Arial",
									"numoutlets" : 2
								}

							}
, 							{
								"box" : 								{
									"maxclass" : "newobj",
									"text" : "* 25.",
									"outlettype" : [ "float" ],
									"fontsize" : 9.0,
									"numinlets" : 2,
									"patching_rect" : [ 445.0, 411.000061, 32.5, 17.0 ],
									"id" : "obj-476",
									"fontname" : "Arial",
									"numoutlets" : 1
								}

							}
, 							{
								"box" : 								{
									"maxclass" : "toggle",
									"outlettype" : [ "int" ],
									"numinlets" : 1,
									"patching_rect" : [ 445.0, 318.0, 20.0, 20.0 ],
									"id" : "obj-477",
									"numoutlets" : 1
								}

							}
, 							{
								"box" : 								{
									"maxclass" : "newobj",
									"text" : "gate",
									"outlettype" : [ "" ],
									"fontsize" : 9.0,
									"numinlets" : 2,
									"patching_rect" : [ 445.0, 429.000061, 32.5, 17.0 ],
									"id" : "obj-478",
									"fontname" : "Arial",
									"numoutlets" : 1
								}

							}
, 							{
								"box" : 								{
									"maxclass" : "number~",
									"outlettype" : [ "signal", "float" ],
									"mode" : 2,
									"fontsize" : 9.0,
									"sig" : 0.0,
									"ft1" : 5.0,
									"numinlets" : 2,
									"patching_rect" : [ 445.0, 375.000061, 56.0, 17.0 ],
									"id" : "obj-479",
									"fontname" : "Arial",
									"numoutlets" : 2
								}

							}
, 							{
								"box" : 								{
									"maxclass" : "newobj",
									"text" : "cycle~ 440.",
									"outlettype" : [ "signal" ],
									"fontsize" : 9.0,
									"numinlets" : 2,
									"patching_rect" : [ 445.0, 357.0, 56.0, 17.0 ],
									"id" : "obj-487",
									"fontname" : "Arial",
									"numoutlets" : 1
								}

							}
, 							{
								"box" : 								{
									"maxclass" : "toggle",
									"outlettype" : [ "int" ],
									"numinlets" : 1,
									"patching_rect" : [ 530.999878, 388.000061, 20.0, 20.0 ],
									"id" : "obj-489",
									"numoutlets" : 1
								}

							}
, 							{
								"box" : 								{
									"maxclass" : "number",
									"outlettype" : [ "int", "bang" ],
									"fontsize" : 9.0,
									"numinlets" : 1,
									"patching_rect" : [ 501.999878, 540.000061, 50.0, 17.0 ],
									"id" : "obj-491",
									"fontname" : "Arial",
									"numoutlets" : 2
								}

							}
, 							{
								"box" : 								{
									"maxclass" : "newobj",
									"text" : "counter 0 1 10",
									"outlettype" : [ "int", "", "", "int" ],
									"fontsize" : 9.0,
									"numinlets" : 5,
									"patching_rect" : [ 577.999878, 521.000061, 73.0, 17.0 ],
									"id" : "obj-495",
									"fontname" : "Arial",
									"numoutlets" : 4
								}

							}
, 							{
								"box" : 								{
									"maxclass" : "flonum",
									"outlettype" : [ "float", "bang" ],
									"fontsize" : 9.0,
									"numinlets" : 1,
									"patching_rect" : [ 582.999878, 447.000061, 50.0, 17.0 ],
									"id" : "obj-498",
									"fontname" : "Arial",
									"numoutlets" : 2
								}

							}
, 							{
								"box" : 								{
									"maxclass" : "toggle",
									"outlettype" : [ "int" ],
									"numinlets" : 1,
									"patching_rect" : [ 561.999878, 446.000061, 20.0, 20.0 ],
									"id" : "obj-499",
									"numoutlets" : 1,
									"bgcolor" : [ 0.917647, 0.937255, 0.670588, 1.0 ]
								}

							}
, 							{
								"box" : 								{
									"maxclass" : "newobj",
									"text" : "metro",
									"outlettype" : [ "bang" ],
									"fontsize" : 9.0,
									"numinlets" : 2,
									"patching_rect" : [ 565.999878, 467.000061, 34.0, 17.0 ],
									"id" : "obj-500",
									"fontname" : "Arial",
									"numoutlets" : 1
								}

							}
, 							{
								"box" : 								{
									"maxclass" : "number",
									"outlettype" : [ "int", "bang" ],
									"fontsize" : 9.0,
									"numinlets" : 1,
									"patching_rect" : [ 552.999878, 540.000061, 50.0, 17.0 ],
									"id" : "obj-502",
									"fontname" : "Arial",
									"numoutlets" : 2
								}

							}
, 							{
								"box" : 								{
									"maxclass" : "newobj",
									"text" : "+",
									"outlettype" : [ "int" ],
									"fontsize" : 9.0,
									"numinlets" : 2,
									"patching_rect" : [ 521.999878, 521.000061, 32.5, 17.0 ],
									"id" : "obj-503",
									"fontname" : "Arial",
									"numoutlets" : 1
								}

							}
, 							{
								"box" : 								{
									"maxclass" : "number",
									"outlettype" : [ "int", "bang" ],
									"fontsize" : 9.0,
									"numinlets" : 1,
									"patching_rect" : [ 402.0, 523.000061, 50.0, 17.0 ],
									"id" : "obj-505",
									"fontname" : "Arial",
									"numoutlets" : 2
								}

							}
, 							{
								"box" : 								{
									"maxclass" : "newobj",
									"text" : "counter 1 101 0",
									"outlettype" : [ "int", "", "", "int" ],
									"fontsize" : 9.0,
									"numinlets" : 5,
									"patching_rect" : [ 453.0, 523.000061, 73.0, 17.0 ],
									"id" : "obj-580",
									"fontname" : "Arial",
									"numoutlets" : 4
								}

							}
, 							{
								"box" : 								{
									"maxclass" : "flonum",
									"outlettype" : [ "float", "bang" ],
									"fontsize" : 9.0,
									"numinlets" : 1,
									"patching_rect" : [ 445.0, 448.000061, 50.0, 17.0 ],
									"id" : "obj-581",
									"fontname" : "Arial",
									"numoutlets" : 2
								}

							}
, 							{
								"box" : 								{
									"maxclass" : "toggle",
									"outlettype" : [ "int" ],
									"numinlets" : 1,
									"patching_rect" : [ 424.0, 447.000061, 20.0, 20.0 ],
									"id" : "obj-583",
									"numoutlets" : 1,
									"bgcolor" : [ 0.917647, 0.937255, 0.670588, 1.0 ]
								}

							}
, 							{
								"box" : 								{
									"maxclass" : "newobj",
									"text" : "metro",
									"outlettype" : [ "bang" ],
									"fontsize" : 9.0,
									"numinlets" : 2,
									"patching_rect" : [ 424.0, 468.000061, 34.0, 17.0 ],
									"id" : "obj-605",
									"fontname" : "Arial",
									"numoutlets" : 1
								}

							}
 ],
						"lines" : [ 							{
								"patchline" : 								{
									"source" : [ "obj-252", 0 ],
									"destination" : [ "obj-495", 1 ],
									"hidden" : 1,
									"midpoints" : [  ]
								}

							}
, 							{
								"patchline" : 								{
									"source" : [ "obj-260", 0 ],
									"destination" : [ "obj-495", 0 ],
									"hidden" : 1,
									"midpoints" : [  ]
								}

							}
, 							{
								"patchline" : 								{
									"source" : [ "obj-258", 0 ],
									"destination" : [ "obj-495", 0 ],
									"hidden" : 1,
									"midpoints" : [  ]
								}

							}
, 							{
								"patchline" : 								{
									"source" : [ "obj-259", 0 ],
									"destination" : [ "obj-260", 0 ],
									"hidden" : 1,
									"midpoints" : [  ]
								}

							}
, 							{
								"patchline" : 								{
									"source" : [ "obj-257", 0 ],
									"destination" : [ "obj-258", 0 ],
									"hidden" : 1,
									"midpoints" : [  ]
								}

							}
, 							{
								"patchline" : 								{
									"source" : [ "obj-415", 0 ],
									"destination" : [ "obj-580", 0 ],
									"hidden" : 1,
									"midpoints" : [  ]
								}

							}
, 							{
								"patchline" : 								{
									"source" : [ "obj-413", 0 ],
									"destination" : [ "obj-580", 0 ],
									"hidden" : 1,
									"midpoints" : [  ]
								}

							}
, 							{
								"patchline" : 								{
									"source" : [ "obj-275", 0 ],
									"destination" : [ "obj-413", 0 ],
									"hidden" : 1,
									"midpoints" : [  ]
								}

							}
, 							{
								"patchline" : 								{
									"source" : [ "obj-414", 0 ],
									"destination" : [ "obj-415", 0 ],
									"hidden" : 1,
									"midpoints" : [  ]
								}

							}
, 							{
								"patchline" : 								{
									"source" : [ "obj-581", 0 ],
									"destination" : [ "obj-605", 1 ],
									"hidden" : 1,
									"midpoints" : [  ]
								}

							}
, 							{
								"patchline" : 								{
									"source" : [ "obj-583", 0 ],
									"destination" : [ "obj-605", 0 ],
									"hidden" : 1,
									"midpoints" : [  ]
								}

							}
, 							{
								"patchline" : 								{
									"source" : [ "obj-502", 0 ],
									"destination" : [ "obj-503", 1 ],
									"hidden" : 1,
									"midpoints" : [  ]
								}

							}
, 							{
								"patchline" : 								{
									"source" : [ "obj-499", 0 ],
									"destination" : [ "obj-500", 0 ],
									"hidden" : 1,
									"midpoints" : [  ]
								}

							}
, 							{
								"patchline" : 								{
									"source" : [ "obj-498", 0 ],
									"destination" : [ "obj-500", 1 ],
									"hidden" : 1,
									"midpoints" : [  ]
								}

							}
, 							{
								"patchline" : 								{
									"source" : [ "obj-495", 0 ],
									"destination" : [ "obj-502", 0 ],
									"hidden" : 1,
									"midpoints" : [  ]
								}

							}
, 							{
								"patchline" : 								{
									"source" : [ "obj-500", 0 ],
									"destination" : [ "obj-495", 0 ],
									"hidden" : 1,
									"midpoints" : [  ]
								}

							}
, 							{
								"patchline" : 								{
									"source" : [ "obj-503", 0 ],
									"destination" : [ "obj-491", 0 ],
									"hidden" : 1,
									"midpoints" : [  ]
								}

							}
, 							{
								"patchline" : 								{
									"source" : [ "obj-580", 0 ],
									"destination" : [ "obj-503", 0 ],
									"hidden" : 1,
									"midpoints" : [  ]
								}

							}
, 							{
								"patchline" : 								{
									"source" : [ "obj-580", 0 ],
									"destination" : [ "obj-505", 0 ],
									"hidden" : 1,
									"midpoints" : [  ]
								}

							}
, 							{
								"patchline" : 								{
									"source" : [ "obj-605", 0 ],
									"destination" : [ "obj-580", 0 ],
									"hidden" : 1,
									"midpoints" : [  ]
								}

							}
, 							{
								"patchline" : 								{
									"source" : [ "obj-489", 0 ],
									"destination" : [ "obj-583", 0 ],
									"hidden" : 1,
									"midpoints" : [  ]
								}

							}
, 							{
								"patchline" : 								{
									"source" : [ "obj-489", 0 ],
									"destination" : [ "obj-499", 0 ],
									"hidden" : 1,
									"midpoints" : [  ]
								}

							}
, 							{
								"patchline" : 								{
									"source" : [ "obj-477", 0 ],
									"destination" : [ "obj-478", 0 ],
									"hidden" : 1,
									"midpoints" : [  ]
								}

							}
, 							{
								"patchline" : 								{
									"source" : [ "obj-478", 0 ],
									"destination" : [ "obj-581", 0 ],
									"hidden" : 1,
									"midpoints" : [  ]
								}

							}
, 							{
								"patchline" : 								{
									"source" : [ "obj-479", 1 ],
									"destination" : [ "obj-476", 0 ],
									"hidden" : 1,
									"midpoints" : [  ]
								}

							}
, 							{
								"patchline" : 								{
									"source" : [ "obj-474", 0 ],
									"destination" : [ "obj-476", 1 ],
									"hidden" : 1,
									"midpoints" : [  ]
								}

							}
, 							{
								"patchline" : 								{
									"source" : [ "obj-476", 0 ],
									"destination" : [ "obj-473", 0 ],
									"hidden" : 1,
									"midpoints" : [  ]
								}

							}
, 							{
								"patchline" : 								{
									"source" : [ "obj-473", 0 ],
									"destination" : [ "obj-478", 1 ],
									"hidden" : 1,
									"midpoints" : [  ]
								}

							}
, 							{
								"patchline" : 								{
									"source" : [ "obj-468", 0 ],
									"destination" : [ "obj-487", 0 ],
									"hidden" : 1,
									"midpoints" : [  ]
								}

							}
, 							{
								"patchline" : 								{
									"source" : [ "obj-487", 0 ],
									"destination" : [ "obj-479", 0 ],
									"hidden" : 1,
									"midpoints" : [  ]
								}

							}
, 							{
								"patchline" : 								{
									"source" : [ "obj-450", 0 ],
									"destination" : [ "obj-449", 0 ],
									"hidden" : 1,
									"midpoints" : [  ]
								}

							}
, 							{
								"patchline" : 								{
									"source" : [ "obj-43", 0 ],
									"destination" : [ "obj-450", 0 ],
									"hidden" : 1,
									"midpoints" : [  ]
								}

							}
, 							{
								"patchline" : 								{
									"source" : [ "obj-446", 0 ],
									"destination" : [ "obj-448", 1 ],
									"hidden" : 1,
									"midpoints" : [  ]
								}

							}
, 							{
								"patchline" : 								{
									"source" : [ "obj-46", 0 ],
									"destination" : [ "obj-446", 0 ],
									"hidden" : 1,
									"midpoints" : [  ]
								}

							}
, 							{
								"patchline" : 								{
									"source" : [ "obj-45", 0 ],
									"destination" : [ "obj-46", 1 ],
									"hidden" : 1,
									"midpoints" : [  ]
								}

							}
, 							{
								"patchline" : 								{
									"source" : [ "obj-449", 1 ],
									"destination" : [ "obj-46", 0 ],
									"hidden" : 1,
									"midpoints" : [  ]
								}

							}
, 							{
								"patchline" : 								{
									"source" : [ "obj-47", 0 ],
									"destination" : [ "obj-448", 0 ],
									"hidden" : 1,
									"midpoints" : [  ]
								}

							}
, 							{
								"patchline" : 								{
									"source" : [ "obj-448", 0 ],
									"destination" : [ "obj-498", 0 ],
									"hidden" : 1,
									"midpoints" : [  ]
								}

							}
, 							{
								"patchline" : 								{
									"source" : [ "obj-445", 0 ],
									"destination" : [ "obj-580", 1 ],
									"hidden" : 1,
									"midpoints" : [  ]
								}

							}
, 							{
								"patchline" : 								{
									"source" : [ "obj-502", 0 ],
									"destination" : [ "obj-435", 0 ],
									"hidden" : 1,
									"midpoints" : [  ]
								}

							}
, 							{
								"patchline" : 								{
									"source" : [ "obj-435", 0 ],
									"destination" : [ "obj-503", 0 ],
									"hidden" : 1,
									"midpoints" : [  ]
								}

							}
, 							{
								"patchline" : 								{
									"source" : [ "obj-1", 0 ],
									"destination" : [ "obj-583", 0 ],
									"hidden" : 0,
									"midpoints" : [  ]
								}

							}
, 							{
								"patchline" : 								{
									"source" : [ "obj-2", 0 ],
									"destination" : [ "obj-581", 0 ],
									"hidden" : 0,
									"midpoints" : [  ]
								}

							}
, 							{
								"patchline" : 								{
									"source" : [ "obj-3", 0 ],
									"destination" : [ "obj-414", 0 ],
									"hidden" : 0,
									"midpoints" : [  ]
								}

							}
, 							{
								"patchline" : 								{
									"source" : [ "obj-4", 0 ],
									"destination" : [ "obj-275", 0 ],
									"hidden" : 0,
									"midpoints" : [  ]
								}

							}
, 							{
								"patchline" : 								{
									"source" : [ "obj-5", 0 ],
									"destination" : [ "obj-477", 0 ],
									"hidden" : 0,
									"midpoints" : [  ]
								}

							}
, 							{
								"patchline" : 								{
									"source" : [ "obj-6", 0 ],
									"destination" : [ "obj-474", 0 ],
									"hidden" : 0,
									"midpoints" : [  ]
								}

							}
, 							{
								"patchline" : 								{
									"source" : [ "obj-7", 0 ],
									"destination" : [ "obj-499", 0 ],
									"hidden" : 0,
									"midpoints" : [  ]
								}

							}
, 							{
								"patchline" : 								{
									"source" : [ "obj-8", 0 ],
									"destination" : [ "obj-498", 0 ],
									"hidden" : 0,
									"midpoints" : [  ]
								}

							}
, 							{
								"patchline" : 								{
									"source" : [ "obj-9", 0 ],
									"destination" : [ "obj-259", 0 ],
									"hidden" : 0,
									"midpoints" : [  ]
								}

							}
, 							{
								"patchline" : 								{
									"source" : [ "obj-10", 0 ],
									"destination" : [ "obj-257", 0 ],
									"hidden" : 0,
									"midpoints" : [  ]
								}

							}
, 							{
								"patchline" : 								{
									"source" : [ "obj-11", 0 ],
									"destination" : [ "obj-47", 0 ],
									"hidden" : 0,
									"midpoints" : [  ]
								}

							}
, 							{
								"patchline" : 								{
									"source" : [ "obj-12", 0 ],
									"destination" : [ "obj-45", 0 ],
									"hidden" : 0,
									"midpoints" : [  ]
								}

							}
, 							{
								"patchline" : 								{
									"source" : [ "obj-505", 0 ],
									"destination" : [ "obj-13", 0 ],
									"hidden" : 0,
									"midpoints" : [  ]
								}

							}
, 							{
								"patchline" : 								{
									"source" : [ "obj-491", 0 ],
									"destination" : [ "obj-14", 0 ],
									"hidden" : 0,
									"midpoints" : [  ]
								}

							}
 ]
					}
,
					"saved_object_attributes" : 					{
						"globalpatchername" : "",
						"default_fontsize" : 9.0,
						"fontface" : 0,
						"fontsize" : 9.0,
						"default_fontface" : 0,
						"fontname" : "Arial",
						"default_fontname" : "Arial"
					}

				}

			}
, 			{
				"box" : 				{
					"maxclass" : "toggle",
					"outlettype" : [ "int" ],
					"numinlets" : 1,
					"patching_rect" : [ 80.0, 386.370697, 17.0, 17.0 ],
					"id" : "obj-681",
					"numoutlets" : 1
				}

			}
, 			{
				"box" : 				{
					"maxclass" : "comment",
					"text" : "Granulate",
					"fontsize" : 9.0,
					"numinlets" : 1,
					"patching_rect" : [ 187.8479, 22.0, 50.0, 17.0 ],
					"id" : "obj-663",
					"fontname" : "Arial",
					"numoutlets" : 0
				}

			}
, 			{
				"box" : 				{
					"maxclass" : "comment",
					"text" : "Both off",
					"fontsize" : 9.0,
					"numinlets" : 1,
					"patching_rect" : [ 192.8479, 76.000061, 40.0, 17.0 ],
					"id" : "obj-251",
					"fontname" : "Arial",
					"numoutlets" : 0
				}

			}
, 			{
				"box" : 				{
					"maxclass" : "umenu",
					"outlettype" : [ "int", "", "" ],
					"fontsize" : 9.0,
					"items" : [ "Up", ",", "Down", ",", "U", "&", "D" ],
					"types" : [  ],
					"numinlets" : 1,
					"patching_rect" : [ 271.847961, 168.000061, 52.0, 17.0 ],
					"id" : "obj-252",
					"fontname" : "Arial",
					"numoutlets" : 3
				}

			}
, 			{
				"box" : 				{
					"maxclass" : "comment",
					"text" : "min",
					"fontsize" : 9.0,
					"numinlets" : 1,
					"patching_rect" : [ 211.8479, 205.000061, 23.0, 17.0 ],
					"id" : "obj-253",
					"fontname" : "Arial",
					"numoutlets" : 0
				}

			}
, 			{
				"box" : 				{
					"maxclass" : "comment",
					"text" : "max",
					"fontsize" : 9.0,
					"numinlets" : 1,
					"patching_rect" : [ 207.8479, 187.000061, 28.0, 17.0 ],
					"id" : "obj-254",
					"fontname" : "Arial",
					"numoutlets" : 0
				}

			}
, 			{
				"box" : 				{
					"maxclass" : "number",
					"outlettype" : [ "int", "bang" ],
					"fontsize" : 9.0,
					"numinlets" : 1,
					"patching_rect" : [ 230.8479, 205.000061, 48.0, 17.0 ],
					"id" : "obj-257",
					"fontname" : "Arial",
					"numoutlets" : 2
				}

			}
, 			{
				"box" : 				{
					"maxclass" : "message",
					"text" : "setmin $1",
					"outlettype" : [ "" ],
					"fontsize" : 9.0,
					"numinlets" : 2,
					"patching_rect" : [ 274.847961, 204.000061, 48.0, 15.0 ],
					"id" : "obj-258",
					"fontname" : "Arial",
					"numoutlets" : 1,
					"hidden" : 1
				}

			}
, 			{
				"box" : 				{
					"maxclass" : "number",
					"outlettype" : [ "int", "bang" ],
					"fontsize" : 9.0,
					"numinlets" : 1,
					"patching_rect" : [ 230.8479, 187.000061, 48.0, 17.0 ],
					"id" : "obj-259",
					"fontname" : "Arial",
					"numoutlets" : 2
				}

			}
, 			{
				"box" : 				{
					"maxclass" : "message",
					"text" : "max $1",
					"outlettype" : [ "" ],
					"fontsize" : 9.0,
					"numinlets" : 2,
					"patching_rect" : [ 277.847961, 188.000061, 39.0, 15.0 ],
					"id" : "obj-260",
					"fontname" : "Arial",
					"numoutlets" : 1,
					"hidden" : 1
				}

			}
, 			{
				"box" : 				{
					"maxclass" : "comment",
					"text" : "min",
					"fontsize" : 9.0,
					"numinlets" : 1,
					"patching_rect" : [ 74.848022, 206.000061, 23.0, 17.0 ],
					"id" : "obj-261",
					"fontname" : "Arial",
					"numoutlets" : 0
				}

			}
, 			{
				"box" : 				{
					"maxclass" : "comment",
					"text" : "max",
					"fontsize" : 9.0,
					"numinlets" : 1,
					"patching_rect" : [ 70.848022, 188.000061, 28.0, 17.0 ],
					"id" : "obj-262",
					"fontname" : "Arial",
					"numoutlets" : 0
				}

			}
, 			{
				"box" : 				{
					"maxclass" : "number",
					"outlettype" : [ "int", "bang" ],
					"fontsize" : 9.0,
					"numinlets" : 1,
					"patching_rect" : [ 93.848022, 206.000061, 48.0, 17.0 ],
					"id" : "obj-275",
					"fontname" : "Arial",
					"numoutlets" : 2
				}

			}
, 			{
				"box" : 				{
					"maxclass" : "message",
					"text" : "setmin $1",
					"outlettype" : [ "" ],
					"fontsize" : 9.0,
					"numinlets" : 2,
					"patching_rect" : [ 143.8479, 206.000061, 48.0, 15.0 ],
					"id" : "obj-413",
					"fontname" : "Arial",
					"numoutlets" : 1,
					"hidden" : 1
				}

			}
, 			{
				"box" : 				{
					"maxclass" : "number",
					"outlettype" : [ "int", "bang" ],
					"fontsize" : 9.0,
					"numinlets" : 1,
					"patching_rect" : [ 93.848022, 188.000061, 48.0, 17.0 ],
					"id" : "obj-414",
					"fontname" : "Arial",
					"numoutlets" : 2
				}

			}
, 			{
				"box" : 				{
					"maxclass" : "message",
					"text" : "max $1",
					"outlettype" : [ "" ],
					"fontsize" : 9.0,
					"numinlets" : 2,
					"patching_rect" : [ 142.8479, 189.000061, 39.0, 15.0 ],
					"id" : "obj-415",
					"fontname" : "Arial",
					"numoutlets" : 1,
					"hidden" : 1
				}

			}
, 			{
				"box" : 				{
					"maxclass" : "comment",
					"text" : "end point",
					"linecount" : 2,
					"fontsize" : 9.0,
					"numinlets" : 1,
					"patching_rect" : [ 206.8479, 147.000061, 28.0, 27.0 ],
					"id" : "obj-417",
					"fontname" : "Arial",
					"numoutlets" : 0
				}

			}
, 			{
				"box" : 				{
					"maxclass" : "comment",
					"text" : "start point",
					"linecount" : 2,
					"fontsize" : 9.0,
					"numinlets" : 1,
					"patching_rect" : [ 66.848022, 148.000061, 29.0, 27.0 ],
					"id" : "obj-430",
					"fontname" : "Arial",
					"numoutlets" : 0
				}

			}
, 			{
				"box" : 				{
					"maxclass" : "button",
					"outlettype" : [ "bang" ],
					"numinlets" : 1,
					"patching_rect" : [ 228.8479, 223.000061, 17.0, 17.0 ],
					"id" : "obj-435",
					"numoutlets" : 1
				}

			}
, 			{
				"box" : 				{
					"maxclass" : "umenu",
					"outlettype" : [ "int", "", "" ],
					"fontsize" : 9.0,
					"items" : [ "Up", ",", "Down", ",", "U", "&", "D" ],
					"types" : [  ],
					"numinlets" : 1,
					"patching_rect" : [ 129.848022, 170.000061, 52.0, 17.0 ],
					"id" : "obj-445",
					"fontname" : "Arial",
					"numoutlets" : 3
				}

			}
, 			{
				"box" : 				{
					"maxclass" : "flonum",
					"outlettype" : [ "float", "bang" ],
					"fontsize" : 9.0,
					"numinlets" : 1,
					"patching_rect" : [ 253.8479, 41.0, 50.0, 17.0 ],
					"id" : "obj-43",
					"fontname" : "Arial",
					"numoutlets" : 2
				}

			}
, 			{
				"box" : 				{
					"maxclass" : "newobj",
					"text" : "abs",
					"outlettype" : [ "int" ],
					"fontsize" : 9.0,
					"numinlets" : 1,
					"patching_rect" : [ 286.847961, 113.000061, 25.0, 17.0 ],
					"id" : "obj-446",
					"fontname" : "Arial",
					"numoutlets" : 1
				}

			}
, 			{
				"box" : 				{
					"maxclass" : "flonum",
					"outlettype" : [ "float", "bang" ],
					"fontsize" : 9.0,
					"numinlets" : 1,
					"patching_rect" : [ 254.8479, 95.000061, 50.0, 17.0 ],
					"id" : "obj-45",
					"fontname" : "Arial",
					"numoutlets" : 2
				}

			}
, 			{
				"box" : 				{
					"maxclass" : "newobj",
					"text" : "* 25.",
					"outlettype" : [ "float" ],
					"fontsize" : 9.0,
					"numinlets" : 2,
					"patching_rect" : [ 253.8479, 113.000061, 32.5, 17.0 ],
					"id" : "obj-46",
					"fontname" : "Arial",
					"numoutlets" : 1
				}

			}
, 			{
				"box" : 				{
					"maxclass" : "toggle",
					"outlettype" : [ "int" ],
					"numinlets" : 1,
					"patching_rect" : [ 253.8479, 20.0, 20.0, 20.0 ],
					"id" : "obj-47",
					"numoutlets" : 1
				}

			}
, 			{
				"box" : 				{
					"maxclass" : "newobj",
					"text" : "gate",
					"outlettype" : [ "" ],
					"fontsize" : 9.0,
					"numinlets" : 2,
					"patching_rect" : [ 253.8479, 131.000061, 32.5, 17.0 ],
					"id" : "obj-448",
					"fontname" : "Arial",
					"numoutlets" : 1
				}

			}
, 			{
				"box" : 				{
					"maxclass" : "number~",
					"outlettype" : [ "signal", "float" ],
					"mode" : 2,
					"fontsize" : 9.0,
					"sig" : 0.0,
					"ft1" : 5.0,
					"numinlets" : 2,
					"patching_rect" : [ 253.8479, 77.000061, 56.0, 17.0 ],
					"id" : "obj-449",
					"fontname" : "Arial",
					"numoutlets" : 2
				}

			}
, 			{
				"box" : 				{
					"maxclass" : "newobj",
					"text" : "cycle~ 440.",
					"outlettype" : [ "signal" ],
					"fontsize" : 9.0,
					"numinlets" : 2,
					"patching_rect" : [ 253.8479, 59.0, 56.0, 17.0 ],
					"id" : "obj-450",
					"fontname" : "Arial",
					"numoutlets" : 1
				}

			}
, 			{
				"box" : 				{
					"maxclass" : "flonum",
					"outlettype" : [ "float", "bang" ],
					"fontsize" : 9.0,
					"numinlets" : 1,
					"patching_rect" : [ 115.848022, 41.0, 50.0, 17.0 ],
					"id" : "obj-468",
					"fontname" : "Arial",
					"numoutlets" : 2
				}

			}
, 			{
				"box" : 				{
					"maxclass" : "newobj",
					"text" : "abs",
					"outlettype" : [ "int" ],
					"fontsize" : 9.0,
					"numinlets" : 1,
					"patching_rect" : [ 148.8479, 113.000061, 25.0, 17.0 ],
					"id" : "obj-473",
					"fontname" : "Arial",
					"numoutlets" : 1
				}

			}
, 			{
				"box" : 				{
					"maxclass" : "flonum",
					"outlettype" : [ "float", "bang" ],
					"fontsize" : 9.0,
					"numinlets" : 1,
					"patching_rect" : [ 116.848022, 95.000061, 50.0, 17.0 ],
					"id" : "obj-474",
					"fontname" : "Arial",
					"numoutlets" : 2
				}

			}
, 			{
				"box" : 				{
					"maxclass" : "newobj",
					"text" : "* 25.",
					"outlettype" : [ "float" ],
					"fontsize" : 9.0,
					"numinlets" : 2,
					"patching_rect" : [ 115.848022, 113.000061, 32.5, 17.0 ],
					"id" : "obj-476",
					"fontname" : "Arial",
					"numoutlets" : 1
				}

			}
, 			{
				"box" : 				{
					"maxclass" : "toggle",
					"outlettype" : [ "int" ],
					"numinlets" : 1,
					"patching_rect" : [ 115.848022, 20.0, 20.0, 20.0 ],
					"id" : "obj-477",
					"numoutlets" : 1
				}

			}
, 			{
				"box" : 				{
					"maxclass" : "newobj",
					"text" : "gate",
					"outlettype" : [ "" ],
					"fontsize" : 9.0,
					"numinlets" : 2,
					"patching_rect" : [ 115.848022, 131.000061, 32.5, 17.0 ],
					"id" : "obj-478",
					"fontname" : "Arial",
					"numoutlets" : 1
				}

			}
, 			{
				"box" : 				{
					"maxclass" : "number~",
					"outlettype" : [ "signal", "float" ],
					"mode" : 2,
					"fontsize" : 9.0,
					"sig" : 0.0,
					"ft1" : 5.0,
					"numinlets" : 2,
					"patching_rect" : [ 115.848022, 77.000061, 56.0, 17.0 ],
					"id" : "obj-479",
					"fontname" : "Arial",
					"numoutlets" : 2
				}

			}
, 			{
				"box" : 				{
					"maxclass" : "newobj",
					"text" : "cycle~ 440.",
					"outlettype" : [ "signal" ],
					"fontsize" : 9.0,
					"numinlets" : 2,
					"patching_rect" : [ 115.848022, 59.0, 56.0, 17.0 ],
					"id" : "obj-487",
					"fontname" : "Arial",
					"numoutlets" : 1
				}

			}
, 			{
				"box" : 				{
					"maxclass" : "toggle",
					"outlettype" : [ "int" ],
					"numinlets" : 1,
					"patching_rect" : [ 201.8479, 90.000061, 20.0, 20.0 ],
					"id" : "obj-489",
					"numoutlets" : 1
				}

			}
, 			{
				"box" : 				{
					"maxclass" : "number",
					"outlettype" : [ "int", "bang" ],
					"fontsize" : 9.0,
					"numinlets" : 1,
					"patching_rect" : [ 172.8479, 242.000061, 50.0, 17.0 ],
					"id" : "obj-491",
					"fontname" : "Arial",
					"numoutlets" : 2
				}

			}
, 			{
				"box" : 				{
					"maxclass" : "newobj",
					"text" : "counter 0 1 10",
					"outlettype" : [ "int", "", "", "int" ],
					"fontsize" : 9.0,
					"numinlets" : 5,
					"patching_rect" : [ 248.8479, 223.000061, 73.0, 17.0 ],
					"id" : "obj-495",
					"fontname" : "Arial",
					"numoutlets" : 4
				}

			}
, 			{
				"box" : 				{
					"maxclass" : "flonum",
					"outlettype" : [ "float", "bang" ],
					"fontsize" : 9.0,
					"numinlets" : 1,
					"patching_rect" : [ 253.8479, 149.000061, 50.0, 17.0 ],
					"id" : "obj-498",
					"fontname" : "Arial",
					"numoutlets" : 2
				}

			}
, 			{
				"box" : 				{
					"maxclass" : "toggle",
					"outlettype" : [ "int" ],
					"numinlets" : 1,
					"patching_rect" : [ 232.8479, 148.000061, 20.0, 20.0 ],
					"id" : "obj-499",
					"numoutlets" : 1,
					"bgcolor" : [ 0.917647, 0.937255, 0.670588, 1.0 ]
				}

			}
, 			{
				"box" : 				{
					"maxclass" : "newobj",
					"text" : "metro",
					"outlettype" : [ "bang" ],
					"fontsize" : 9.0,
					"numinlets" : 2,
					"patching_rect" : [ 236.8479, 169.000061, 34.0, 17.0 ],
					"id" : "obj-500",
					"fontname" : "Arial",
					"numoutlets" : 1
				}

			}
, 			{
				"box" : 				{
					"maxclass" : "number",
					"outlettype" : [ "int", "bang" ],
					"fontsize" : 9.0,
					"numinlets" : 1,
					"patching_rect" : [ 223.8479, 242.000061, 50.0, 17.0 ],
					"id" : "obj-502",
					"fontname" : "Arial",
					"numoutlets" : 2
				}

			}
, 			{
				"box" : 				{
					"maxclass" : "newobj",
					"text" : "+",
					"outlettype" : [ "int" ],
					"fontsize" : 9.0,
					"numinlets" : 2,
					"patching_rect" : [ 192.8479, 223.000061, 32.5, 17.0 ],
					"id" : "obj-503",
					"fontname" : "Arial",
					"numoutlets" : 1
				}

			}
, 			{
				"box" : 				{
					"maxclass" : "number",
					"outlettype" : [ "int", "bang" ],
					"fontsize" : 9.0,
					"numinlets" : 1,
					"patching_rect" : [ 72.848022, 225.000061, 50.0, 17.0 ],
					"id" : "obj-505",
					"fontname" : "Arial",
					"numoutlets" : 2
				}

			}
, 			{
				"box" : 				{
					"maxclass" : "newobj",
					"text" : "counter 1 101 0",
					"outlettype" : [ "int", "", "", "int" ],
					"fontsize" : 9.0,
					"numinlets" : 5,
					"patching_rect" : [ 123.848022, 225.000061, 73.0, 17.0 ],
					"id" : "obj-580",
					"fontname" : "Arial",
					"numoutlets" : 4
				}

			}
, 			{
				"box" : 				{
					"maxclass" : "flonum",
					"outlettype" : [ "float", "bang" ],
					"fontsize" : 9.0,
					"numinlets" : 1,
					"patching_rect" : [ 115.848022, 150.000061, 50.0, 17.0 ],
					"id" : "obj-581",
					"fontname" : "Arial",
					"numoutlets" : 2
				}

			}
, 			{
				"box" : 				{
					"maxclass" : "toggle",
					"outlettype" : [ "int" ],
					"numinlets" : 1,
					"patching_rect" : [ 94.848022, 149.000061, 20.0, 20.0 ],
					"id" : "obj-583",
					"numoutlets" : 1,
					"bgcolor" : [ 0.917647, 0.937255, 0.670588, 1.0 ]
				}

			}
, 			{
				"box" : 				{
					"maxclass" : "newobj",
					"text" : "metro",
					"outlettype" : [ "bang" ],
					"fontsize" : 9.0,
					"numinlets" : 2,
					"patching_rect" : [ 94.848022, 170.000061, 34.0, 17.0 ],
					"id" : "obj-605",
					"fontname" : "Arial",
					"numoutlets" : 1
				}

			}
, 			{
				"box" : 				{
					"maxclass" : "panel",
					"numinlets" : 1,
					"patching_rect" : [ 58.848022, 15.0, 285.0, 259.0 ],
					"id" : "obj-712",
					"numoutlets" : 0
				}

			}
, 			{
				"box" : 				{
					"maxclass" : "panel",
					"mode" : 1,
					"border" : 1,
					"grad1" : [ 0.741176, 0.8, 1.0, 1.0 ],
					"angle" : 45.0,
					"numinlets" : 1,
					"patching_rect" : [ 15.0, 384.370697, 164.0, 129.0 ],
					"id" : "obj-715",
					"grad2" : [ 0.490196, 0.501961, 0.443137, 1.0 ],
					"numoutlets" : 0
				}

			}
 ],
		"lines" : [ 			{
				"patchline" : 				{
					"source" : [ "obj-435", 0 ],
					"destination" : [ "obj-503", 0 ],
					"hidden" : 1,
					"midpoints" : [  ]
				}

			}
, 			{
				"patchline" : 				{
					"source" : [ "obj-502", 0 ],
					"destination" : [ "obj-435", 0 ],
					"hidden" : 1,
					"midpoints" : [  ]
				}

			}
, 			{
				"patchline" : 				{
					"source" : [ "obj-445", 0 ],
					"destination" : [ "obj-580", 1 ],
					"hidden" : 1,
					"midpoints" : [  ]
				}

			}
, 			{
				"patchline" : 				{
					"source" : [ "obj-448", 0 ],
					"destination" : [ "obj-498", 0 ],
					"hidden" : 1,
					"midpoints" : [  ]
				}

			}
, 			{
				"patchline" : 				{
					"source" : [ "obj-47", 0 ],
					"destination" : [ "obj-448", 0 ],
					"hidden" : 1,
					"midpoints" : [  ]
				}

			}
, 			{
				"patchline" : 				{
					"source" : [ "obj-449", 1 ],
					"destination" : [ "obj-46", 0 ],
					"hidden" : 1,
					"midpoints" : [  ]
				}

			}
, 			{
				"patchline" : 				{
					"source" : [ "obj-45", 0 ],
					"destination" : [ "obj-46", 1 ],
					"hidden" : 1,
					"midpoints" : [  ]
				}

			}
, 			{
				"patchline" : 				{
					"source" : [ "obj-46", 0 ],
					"destination" : [ "obj-446", 0 ],
					"hidden" : 1,
					"midpoints" : [  ]
				}

			}
, 			{
				"patchline" : 				{
					"source" : [ "obj-446", 0 ],
					"destination" : [ "obj-448", 1 ],
					"hidden" : 1,
					"midpoints" : [  ]
				}

			}
, 			{
				"patchline" : 				{
					"source" : [ "obj-43", 0 ],
					"destination" : [ "obj-450", 0 ],
					"hidden" : 1,
					"midpoints" : [  ]
				}

			}
, 			{
				"patchline" : 				{
					"source" : [ "obj-450", 0 ],
					"destination" : [ "obj-449", 0 ],
					"hidden" : 1,
					"midpoints" : [  ]
				}

			}
, 			{
				"patchline" : 				{
					"source" : [ "obj-487", 0 ],
					"destination" : [ "obj-479", 0 ],
					"hidden" : 1,
					"midpoints" : [  ]
				}

			}
, 			{
				"patchline" : 				{
					"source" : [ "obj-468", 0 ],
					"destination" : [ "obj-487", 0 ],
					"hidden" : 1,
					"midpoints" : [  ]
				}

			}
, 			{
				"patchline" : 				{
					"source" : [ "obj-473", 0 ],
					"destination" : [ "obj-478", 1 ],
					"hidden" : 1,
					"midpoints" : [  ]
				}

			}
, 			{
				"patchline" : 				{
					"source" : [ "obj-476", 0 ],
					"destination" : [ "obj-473", 0 ],
					"hidden" : 1,
					"midpoints" : [  ]
				}

			}
, 			{
				"patchline" : 				{
					"source" : [ "obj-474", 0 ],
					"destination" : [ "obj-476", 1 ],
					"hidden" : 1,
					"midpoints" : [  ]
				}

			}
, 			{
				"patchline" : 				{
					"source" : [ "obj-479", 1 ],
					"destination" : [ "obj-476", 0 ],
					"hidden" : 1,
					"midpoints" : [  ]
				}

			}
, 			{
				"patchline" : 				{
					"source" : [ "obj-478", 0 ],
					"destination" : [ "obj-581", 0 ],
					"hidden" : 1,
					"midpoints" : [  ]
				}

			}
, 			{
				"patchline" : 				{
					"source" : [ "obj-477", 0 ],
					"destination" : [ "obj-478", 0 ],
					"hidden" : 1,
					"midpoints" : [  ]
				}

			}
, 			{
				"patchline" : 				{
					"source" : [ "obj-489", 0 ],
					"destination" : [ "obj-499", 0 ],
					"hidden" : 1,
					"midpoints" : [  ]
				}

			}
, 			{
				"patchline" : 				{
					"source" : [ "obj-489", 0 ],
					"destination" : [ "obj-583", 0 ],
					"hidden" : 1,
					"midpoints" : [  ]
				}

			}
, 			{
				"patchline" : 				{
					"source" : [ "obj-605", 0 ],
					"destination" : [ "obj-580", 0 ],
					"hidden" : 1,
					"midpoints" : [  ]
				}

			}
, 			{
				"patchline" : 				{
					"source" : [ "obj-580", 0 ],
					"destination" : [ "obj-505", 0 ],
					"hidden" : 1,
					"midpoints" : [  ]
				}

			}
, 			{
				"patchline" : 				{
					"source" : [ "obj-580", 0 ],
					"destination" : [ "obj-503", 0 ],
					"hidden" : 1,
					"midpoints" : [  ]
				}

			}
, 			{
				"patchline" : 				{
					"source" : [ "obj-503", 0 ],
					"destination" : [ "obj-491", 0 ],
					"hidden" : 1,
					"midpoints" : [  ]
				}

			}
, 			{
				"patchline" : 				{
					"source" : [ "obj-500", 0 ],
					"destination" : [ "obj-495", 0 ],
					"hidden" : 1,
					"midpoints" : [  ]
				}

			}
, 			{
				"patchline" : 				{
					"source" : [ "obj-495", 0 ],
					"destination" : [ "obj-502", 0 ],
					"hidden" : 1,
					"midpoints" : [  ]
				}

			}
, 			{
				"patchline" : 				{
					"source" : [ "obj-498", 0 ],
					"destination" : [ "obj-500", 1 ],
					"hidden" : 1,
					"midpoints" : [  ]
				}

			}
, 			{
				"patchline" : 				{
					"source" : [ "obj-499", 0 ],
					"destination" : [ "obj-500", 0 ],
					"hidden" : 1,
					"midpoints" : [  ]
				}

			}
, 			{
				"patchline" : 				{
					"source" : [ "obj-502", 0 ],
					"destination" : [ "obj-503", 1 ],
					"hidden" : 1,
					"midpoints" : [  ]
				}

			}
, 			{
				"patchline" : 				{
					"source" : [ "obj-583", 0 ],
					"destination" : [ "obj-605", 0 ],
					"hidden" : 1,
					"midpoints" : [  ]
				}

			}
, 			{
				"patchline" : 				{
					"source" : [ "obj-581", 0 ],
					"destination" : [ "obj-605", 1 ],
					"hidden" : 1,
					"midpoints" : [  ]
				}

			}
, 			{
				"patchline" : 				{
					"source" : [ "obj-414", 0 ],
					"destination" : [ "obj-415", 0 ],
					"hidden" : 1,
					"midpoints" : [  ]
				}

			}
, 			{
				"patchline" : 				{
					"source" : [ "obj-275", 0 ],
					"destination" : [ "obj-413", 0 ],
					"hidden" : 1,
					"midpoints" : [  ]
				}

			}
, 			{
				"patchline" : 				{
					"source" : [ "obj-413", 0 ],
					"destination" : [ "obj-580", 0 ],
					"hidden" : 1,
					"midpoints" : [  ]
				}

			}
, 			{
				"patchline" : 				{
					"source" : [ "obj-415", 0 ],
					"destination" : [ "obj-580", 0 ],
					"hidden" : 1,
					"midpoints" : [  ]
				}

			}
, 			{
				"patchline" : 				{
					"source" : [ "obj-257", 0 ],
					"destination" : [ "obj-258", 0 ],
					"hidden" : 1,
					"midpoints" : [  ]
				}

			}
, 			{
				"patchline" : 				{
					"source" : [ "obj-259", 0 ],
					"destination" : [ "obj-260", 0 ],
					"hidden" : 1,
					"midpoints" : [  ]
				}

			}
, 			{
				"patchline" : 				{
					"source" : [ "obj-258", 0 ],
					"destination" : [ "obj-495", 0 ],
					"hidden" : 1,
					"midpoints" : [  ]
				}

			}
, 			{
				"patchline" : 				{
					"source" : [ "obj-260", 0 ],
					"destination" : [ "obj-495", 0 ],
					"hidden" : 1,
					"midpoints" : [  ]
				}

			}
, 			{
				"patchline" : 				{
					"source" : [ "obj-252", 0 ],
					"destination" : [ "obj-495", 1 ],
					"hidden" : 1,
					"midpoints" : [  ]
				}

			}
, 			{
				"patchline" : 				{
					"source" : [ "obj-681", 0 ],
					"destination" : [ "obj-682", 0 ],
					"hidden" : 1,
					"midpoints" : [  ]
				}

			}
, 			{
				"patchline" : 				{
					"source" : [ "obj-696", 0 ],
					"destination" : [ "obj-682", 1 ],
					"hidden" : 1,
					"midpoints" : [  ]
				}

			}
, 			{
				"patchline" : 				{
					"source" : [ "obj-693", 0 ],
					"destination" : [ "obj-682", 2 ],
					"hidden" : 1,
					"midpoints" : [  ]
				}

			}
, 			{
				"patchline" : 				{
					"source" : [ "obj-691", 0 ],
					"destination" : [ "obj-682", 3 ],
					"hidden" : 1,
					"midpoints" : [  ]
				}

			}
, 			{
				"patchline" : 				{
					"source" : [ "obj-699", 0 ],
					"destination" : [ "obj-682", 4 ],
					"hidden" : 1,
					"midpoints" : [  ]
				}

			}
, 			{
				"patchline" : 				{
					"source" : [ "obj-702", 0 ],
					"destination" : [ "obj-682", 5 ],
					"hidden" : 1,
					"midpoints" : [  ]
				}

			}
, 			{
				"patchline" : 				{
					"source" : [ "obj-714", 0 ],
					"destination" : [ "obj-682", 6 ],
					"hidden" : 1,
					"midpoints" : [  ]
				}

			}
, 			{
				"patchline" : 				{
					"source" : [ "obj-707", 0 ],
					"destination" : [ "obj-682", 7 ],
					"hidden" : 1,
					"midpoints" : [  ]
				}

			}
, 			{
				"patchline" : 				{
					"source" : [ "obj-711", 0 ],
					"destination" : [ "obj-682", 8 ],
					"hidden" : 1,
					"midpoints" : [  ]
				}

			}
, 			{
				"patchline" : 				{
					"source" : [ "obj-710", 0 ],
					"destination" : [ "obj-682", 9 ],
					"hidden" : 1,
					"midpoints" : [  ]
				}

			}
, 			{
				"patchline" : 				{
					"source" : [ "obj-705", 0 ],
					"destination" : [ "obj-682", 10 ],
					"hidden" : 1,
					"midpoints" : [  ]
				}

			}
, 			{
				"patchline" : 				{
					"source" : [ "obj-703", 0 ],
					"destination" : [ "obj-682", 11 ],
					"hidden" : 1,
					"midpoints" : [  ]
				}

			}
 ]
	}

}
